# xmcd
#
# Track frame offsets:
#	150
#	15610
#	35707
#	53432
#	67870
#	79195
#	96810
#	112357
#	130387
#	153235
#	169875
#	185335
#	205430
#	223157
#	237597
#	248922
#	266540
#	282085
#	300117
#	322962
#
# Disc length: 4527 seconds
#
# Revision: 2
# Processed by: cddbd v1.5.2PL0 Copyright (c) Steve Scherf et al.
# Submitted via: audiograbber 1.83.01
#
DISCID=1a11ad14
DTITLE=Various Artist - THMC0206
DYEAR=1900
DGENRE=Karaoke
TTITLE0=Azar, Steve - I Don't Have To Be Me Till Monday (Vocals)
TTITLE1=Nelson, Willie And Womack, Lee Ann - Mendocino County Line (Vocals)
TTITLE2=Evans, Sara - I Keep Looking (Vocals)
TTITLE3=SHeDAISY - Get Over Yourself (Vocals)
TTITLE4=O'Neal, Jamie - Frantic (Vocals)
TTITLE5=Adkins, Trace - Help Me Understand (Vocals)
TTITLE6=Chestnutt, Mark - She Was (Vocals)
TTITLE7=Allan, Gary - The One (Vocals)
TTITLE8=Nickel Creek - The Lighthouse's Tale (Vocals)
TTITLE9=McEntire, Reba - Sweet Music Man (Vocals)
TTITLE10=Azar, Steve - I Don't Have To Be Me Till Monday
TTITLE11=Nelson, Willie And Womack, Lee Ann - Mendocino County Line
TTITLE12=Evans, Sara - I Keep Looking
TTITLE13=SHeDAISY - Get Over Yourself
TTITLE14=O'Neal, Jamie - Frantic
TTITLE15=Adkins, Trace - Help Me Understand
TTITLE16=Chestnutt, Mark - She Was
TTITLE17=Allan, Gary - The One
TTITLE18=Nickel Creek - The Lighthouse's Tale
TTITLE19=McEntire, Reba - Sweet Music Man
EXTD=
EXTT0=
EXTT1=
EXTT2=
EXTT3=
EXTT4=
EXTT5=
EXTT6=
EXTT7=
EXTT8=
EXTT9=
EXTT10=
EXTT11=
EXTT12=
EXTT13=
EXTT14=
EXTT15=
EXTT16=
EXTT17=
EXTT18=
EXTT19=
PLAYORDER=
